<svg xmlns="http://www.w3.org/2000/svg" viewBox="0 0 64 64" role="img" aria-label="Feelerr option 2 request beacon">
  <rect width="64" height="64" rx="15" fill="#172126"/>
  <path d="M16 17h32M16 47h32" stroke="#dcefeb" stroke-width="3" stroke-linecap="round" opacity=".42"/>
  <path d="M32 12c11.05 0 20 8.95 20 20 0 5.52-2.24 10.52-5.86 14.14M32 52c-11.05 0-20-8.95-20-20 0-5.52 2.24-10.52 5.86-14.14" fill="none" stroke="#16766b" stroke-width="4" stroke-linecap="round"/>
  <path d="M25 25h16a4 4 0 0 1 4 4v9a4 4 0 0 1-4 4H25a4 4 0 0 1-4-4v-9a4 4 0 0 1 4-4Z" fill="#f7faf9"/>
  <path d="M30 30v7l7-3.5L30 30Z" fill="#172126"/>
  <path d="M39 18l5 5-5 5" fill="none" stroke="#b86145" stroke-width="4" stroke-linecap="round" stroke-linejoin="round"/>
  <circle cx="20" cy="47" r="5" fill="#b86145"/>
</svg>
